<svg width="512" height="512" viewBox="0 0 512 512" fill="none" xmlns="http://www.w3.org/2000/svg">
<g clip-path="url(#clip0_10689_306)">
<path d="M100.92 -0.269142C102.311 -0.272885 103.702 -0.277489 105.092 -0.282873C108.891 -0.295041 112.689 -0.294849 116.487 -0.292484C120.593 -0.292074 124.699 -0.30313 128.805 -0.312599C136.841 -0.329177 144.877 -0.334707 152.913 -0.335824C159.45 -0.336776 165.987 -0.340895 172.525 -0.347225C191.083 -0.36483 209.642 -0.374065 228.201 -0.372564C229.201 -0.372484 230.2 -0.372404 231.23 -0.372322C232.231 -0.37224 233.231 -0.372158 234.262 -0.372074C250.468 -0.371262 266.674 -0.390388 282.88 -0.418599C299.545 -0.447377 316.21 -0.461136 332.874 -0.459411C342.22 -0.458749 351.566 -0.464169 360.912 -0.485767C368.872 -0.504045 376.832 -0.508273 384.791 -0.494748C388.846 -0.488251 392.901 -0.487982 396.955 -0.505455C429.349 -0.636199 458.247 4.61955 482.133 28.0959C483.091 29.0612 484.047 30.0284 485 30.9983C486.141 32.141 486.141 32.141 487.305 33.3069C504.502 51.5413 512.327 76.3078 512.268 100.918C512.271 102.309 512.276 103.7 512.281 105.09C512.294 108.889 512.293 112.687 512.291 116.485C512.291 120.591 512.302 124.697 512.311 128.803C512.328 136.839 512.333 144.875 512.334 152.911C512.335 159.448 512.339 165.986 512.346 172.523C512.363 191.082 512.373 209.64 512.371 228.199C512.371 229.699 512.371 229.699 512.371 231.228C512.371 232.229 512.371 233.229 512.371 234.26C512.37 250.466 512.389 266.672 512.417 282.878C512.446 299.543 512.46 316.208 512.458 332.872C512.457 342.218 512.463 351.564 512.484 360.91C512.503 368.87 512.507 376.83 512.493 384.789C512.487 388.844 512.487 392.899 512.504 396.953C512.635 429.347 507.379 458.245 483.903 482.131C482.937 483.089 481.97 484.045 481 484.998C479.857 486.139 479.857 486.139 478.692 487.303C460.457 504.5 435.691 512.326 411.08 512.266C409.69 512.269 408.299 512.274 406.908 512.279C403.11 512.292 399.312 512.291 395.513 512.289C391.407 512.289 387.302 512.3 383.196 512.309C375.16 512.326 367.123 512.331 359.087 512.332C352.55 512.333 346.013 512.337 339.476 512.344C320.917 512.361 302.358 512.371 283.799 512.369C282.8 512.369 281.8 512.369 280.771 512.369C279.77 512.369 278.769 512.369 277.738 512.369C261.532 512.368 245.326 512.387 229.12 512.415C212.456 512.444 195.791 512.458 179.126 512.456C169.78 512.455 160.434 512.461 151.088 512.482C143.129 512.501 135.169 512.505 127.209 512.491C123.154 512.485 119.1 512.485 115.045 512.502C82.6517 512.633 53.7536 507.377 29.8674 483.901C28.9094 482.935 27.9535 481.968 27.0002 480.998C26.2397 480.236 25.4791 479.475 24.6955 478.69C7.49836 460.455 -0.326999 435.689 -0.267189 411.078C-0.270932 409.688 -0.275538 408.297 -0.280922 406.906C-0.29309 403.108 -0.292893 399.31 -0.290527 395.511C-0.290117 391.405 -0.301177 387.3 -0.310646 383.194C-0.327224 375.158 -0.332753 367.121 -0.33387 359.085C-0.334822 352.548 -0.338945 346.011 -0.345276 339.474C-0.362881 320.915 -0.372114 302.356 -0.370613 283.797C-0.370533 282.798 -0.370451 281.798 -0.370369 280.769C-0.370287 279.768 -0.370209 278.767 -0.370125 277.736C-0.369312 261.53 -0.388438 245.324 -0.416649 229.118C-0.445427 212.454 -0.459183 195.789 -0.457458 179.124C-0.456796 169.778 -0.462212 160.432 -0.48381 151.086C-0.502088 143.127 -0.506322 135.167 -0.492798 127.207C-0.486301 123.152 -0.486029 119.098 -0.503502 115.043C-0.634246 82.6497 4.62151 53.7517 28.0979 29.8655C29.0631 28.9075 30.0304 27.9516 31.0002 26.9983C31.7621 26.2377 32.5239 25.4772 33.3088 24.6936C51.5432 7.4964 76.3098 -0.328952 100.92 -0.269142Z" fill="#20234D"/>
<path d="M395.062 141.689C412.181 156.492 424.165 175.802 430.749 197.439C431.048 198.403 431.048 198.403 431.352 199.387C434.703 211.072 435.302 223.017 435.265 235.103C435.266 236.515 435.268 237.926 435.271 239.338C435.274 242.278 435.27 245.217 435.26 248.157C435.249 251.861 435.255 255.565 435.267 259.27C435.381 302.253 435.381 302.253 427.999 322.001C427.606 323.057 427.213 324.113 426.808 325.2C421.663 338.19 414.795 349.24 405.999 360.001C405.572 360.527 405.145 361.054 404.705 361.596C394.364 374.218 380.283 382.353 365.712 389.189C364.322 389.848 362.949 390.543 361.581 391.247C348.18 397.909 332.169 399.194 317.499 399.251C316.213 399.272 314.926 399.292 313.601 399.314C304.693 399.349 296.613 398.252 287.999 396.001C287.254 395.808 286.508 395.614 285.74 395.415C272.27 391.66 260.212 385.254 249.367 376.47C246.657 374.788 245.13 374.689 241.999 375.001C241.999 375.661 241.999 376.321 241.999 377.001C218.388 393.739 192.506 400.14 163.648 396.525C144.869 393.243 127.101 384.772 112.999 372.001C112.06 371.156 111.12 370.31 110.152 369.439C103.339 362.992 98.4776 356.217 93.9994 348.001C93.3704 346.864 92.7413 345.727 92.0932 344.556C81.7859 325.033 79.5124 303.801 79.6588 282.045C79.6597 280.24 79.6592 278.434 79.6575 276.628C79.6567 271.793 79.6741 266.957 79.6953 262.122C79.7142 257.043 79.7158 251.965 79.7193 246.887C79.7286 237.301 79.7531 227.714 79.7834 218.128C79.8171 207.201 79.8334 196.275 79.8484 185.348C79.8797 162.899 79.9346 140.45 79.9994 118.001C95.5094 118.001 111.019 118.001 126.999 118.001C127.014 123.411 127.029 128.821 127.044 134.394C127.094 152.288 127.16 170.181 127.235 188.074C127.28 198.921 127.319 209.767 127.346 220.613C127.369 230.072 127.402 239.53 127.448 248.989C127.472 253.993 127.491 258.997 127.497 264C127.503 268.72 127.523 273.439 127.554 278.159C127.562 279.882 127.566 281.605 127.564 283.327C127.55 303.828 131.309 322.705 145.999 338.001C158.77 349.157 171.41 352.904 188.052 352.145C195.968 351.561 202.972 347.763 210 344.339C214.805 342.001 214.805 342.001 216.999 342.001C216.468 340.962 215.937 339.923 215.39 338.853C214.676 337.444 213.963 336.035 213.249 334.626C212.901 333.947 212.553 333.267 212.195 332.568C199.807 308.021 199.222 282.739 199.481 255.855C199.506 252.531 199.5 249.207 199.494 245.883C199.491 242.626 199.503 239.369 199.52 236.112C199.527 234.584 199.53 233.056 199.529 231.527C199.548 209.557 205.624 190.254 215.999 171.001C216.723 169.628 216.723 169.628 217.46 168.228C230.894 144.234 255.575 124.721 281.874 117.001C284.574 116.272 287.273 115.629 289.999 115.001C291.024 114.757 292.049 114.514 293.105 114.263C329.682 107.16 366.89 118.084 395.062 141.689Z" fill="#F8F8F8"/>
<path d="M346.001 160.999C347.05 161.411 348.099 161.822 349.181 162.245C366.817 169.964 378.886 186.598 386.188 203.796C391.774 218.664 391.329 235.307 391.262 250.967C391.251 253.93 391.262 256.893 391.274 259.857C391.286 275.519 391.298 292.077 386.001 306.999C385.663 307.958 385.325 308.917 384.977 309.906C377.655 328.975 364.198 342.246 346.001 350.999C336.442 354.91 328.803 356.203 318.501 356.249C317.379 356.27 316.258 356.291 315.102 356.312C304.248 356.362 294.517 354.351 284.876 349.312C284.198 348.962 283.52 348.611 282.821 348.25C264.566 338.54 254.429 321.816 247.626 302.812C244.461 292.219 243.691 281.608 243.7 270.605C243.696 269.374 243.692 268.143 243.687 266.874C243.681 264.289 243.681 261.703 243.685 259.117C243.688 255.207 243.665 251.298 243.64 247.388C243.567 219.118 247.891 197.088 268.001 175.999C268.541 175.373 269.081 174.746 269.638 174.101C288.091 153.556 321.761 150.646 346.001 160.999Z" fill="#1C2040"/>
<path d="M40 19C40.66 19.33 41.32 19.66 42 20C33.6667 28.3333 25.3333 36.6667 17 45C18.4588 40.2916 21.2311 37.1877 24.5625 33.6875C25.0939 33.1201 25.6253 32.5526 26.1729 31.968C30.537 27.3624 35.1304 23.0703 40 19Z" fill="#22366C"/>
</g>
<defs>
<clipPath id="clip0_10689_306">
<rect width="512" height="512" fill="white"/>
</clipPath>
</defs>
</svg>
