<svg width="541" height="536" viewBox="0 0 541 536" fill="none" xmlns="http://www.w3.org/2000/svg">
<path d="M159.958 408.555C129.071 408.555 102.501 403.407 80.2482 393.111C57.9958 382.483 40.8913 366.707 28.9348 345.783C16.9783 324.527 11 297.791 11 265.575C11 236.348 16.9783 211.272 28.9348 190.348C40.8913 169.092 57.6637 152.818 79.2519 141.526C100.84 130.233 126.248 124.421 155.475 124.089C167.431 124.089 177.893 125.085 186.861 127.078C196.16 128.739 202.969 130.566 207.286 132.558L206.29 185.864C201.972 184.204 196.492 182.543 189.85 180.883C183.207 179.222 174.904 178.392 164.94 178.392C137.374 178.392 116.616 186.031 102.667 201.308C89.0496 216.586 82.241 238.008 82.241 265.575C82.241 284.506 85.0641 300.614 90.7102 313.899C96.6885 327.184 105.656 337.314 117.612 344.289C129.569 350.931 144.847 354.252 163.446 354.252C173.41 354.252 182.045 353.422 189.352 351.761C196.991 350.101 203.633 348.108 209.279 345.783L202.803 364.216C200.146 358.57 198.485 351.761 197.821 343.79C197.157 335.819 196.824 327.184 196.824 317.885V113.627C196.824 105.656 196.658 96.0244 196.326 84.7322C195.994 73.4399 195.496 62.4797 194.832 51.8517C194.167 41.2237 193.171 33.2526 191.843 27.9386L193.337 23.9531H266.571V304.433C266.571 311.076 266.571 319.711 266.571 330.339C266.903 340.635 267.235 350.765 267.567 360.729C268.231 370.693 269.228 378.664 270.556 384.642L269.062 388.627C255.112 394.273 239.004 398.923 220.737 402.577C202.803 406.562 182.543 408.555 159.958 408.555Z" fill="white"/>
<path d="M193.337 23.9531L191.843 27.9385C193.171 33.2525 194.168 41.2236 194.832 51.8516C195.496 62.4796 195.994 73.4401 196.326 84.7324C196.658 96.0245 196.824 105.656 196.824 113.627V129.152C193.901 128.435 190.58 127.742 186.86 127.078C177.893 125.085 167.431 124.089 155.475 124.089C126.248 124.421 100.84 130.233 79.252 141.525L78.2432 142.059C57.1405 153.328 40.7042 169.425 28.9346 190.349C16.9782 211.272 11 236.348 11 265.575L11.0039 267.081C11.1878 298.625 17.1649 324.859 28.9346 345.783C40.8911 366.707 57.9956 382.483 80.248 393.111C102.5 403.407 129.07 408.555 159.958 408.555C182.543 408.555 202.803 406.562 220.737 402.576C239.004 398.923 255.112 394.273 269.062 388.627L270.557 384.642C269.228 378.663 268.232 370.692 267.567 360.729C267.235 350.765 266.903 340.635 266.571 330.339V23.9531H193.337ZM82.2412 265.575C82.2412 238.009 89.0498 216.586 102.667 201.309C116.616 186.031 137.374 178.392 164.94 178.392L166.789 178.401C175.935 178.499 183.622 179.326 189.85 180.883C192.337 181.505 194.663 182.126 196.824 182.748V317.885L196.828 319.62C196.867 328.261 197.199 336.317 197.821 343.79C197.985 345.757 198.21 347.653 198.495 349.478C195.625 350.297 192.577 351.06 189.352 351.762C182.045 353.422 173.409 354.252 163.445 354.252V343.252C172.677 343.252 180.348 342.49 186.584 341.106C186.076 333.821 185.824 326.078 185.824 317.885V191.237C180.514 190.065 173.614 189.392 164.94 189.392C139.406 189.392 122.05 196.41 110.814 208.698C99.5767 221.349 93.2412 239.809 93.2412 265.575C93.2413 283.41 95.8996 297.933 100.788 309.487C105.861 320.71 113.267 328.992 123.06 334.729C132.888 340.16 146.134 343.252 163.445 343.252V354.252C144.846 354.252 129.569 350.931 117.612 344.288C105.656 337.313 96.6882 327.184 90.71 313.899C85.2402 301.029 82.4199 285.51 82.249 267.341L82.2412 265.575ZM277.571 330.152C277.899 340.322 278.227 350.329 278.555 360.174C279.202 369.794 280.145 377.085 281.294 382.256L282.003 385.445L277.666 397.012L273.188 398.824C258.493 404.772 241.727 409.592 222.969 413.348C204.136 417.518 183.107 419.555 159.958 419.555C127.877 419.555 99.6539 414.211 75.6289 403.095L75.5684 403.066L75.5078 403.037C51.2848 391.468 32.4787 374.156 19.3838 351.24L19.3652 351.208L19.3477 351.176C6.21456 327.828 6.03515e-05 299.093 0 265.575C0 234.84 6.29459 207.797 19.3838 184.891C32.3805 161.813 50.6989 144.047 74.1533 131.778C97.5551 119.537 124.732 113.438 155.35 113.09L155.412 113.089H155.475C166.591 113.089 176.734 113.908 185.824 115.636V113.627C185.824 105.798 185.661 96.2805 185.331 85.0557C185.002 73.8772 184.51 63.0382 183.854 52.5381C183.2 42.0782 182.249 34.9186 181.171 30.6064L180.34 27.2832L185.714 12.9531H277.571V330.152Z" fill="black"/>
<path d="M326.086 273.578L489.086 2.57812L415.586 204.578H532.086L333.586 533.078L415.586 273.578H326.086Z" fill="#FFEF0B"/>
<path d="M493.784 4.28711L422.726 199.577H540.949L337.865 535.663L328.818 531.57L408.763 278.577H317.244L484.801 0L493.784 4.28711ZM334.929 268.577H422.409L350.98 494.621L523.223 209.577H408.446L466.683 49.5254L334.929 268.577Z" fill="black"/>
</svg>
